<svg width="115" height="50" viewBox="0 0 115 50" fill="none" xmlns="http://www.w3.org/2000/svg">
<g clip-path="url(#clip0_232_947)">
<path d="M4.31327 41.407C4.31327 41.9281 4.24758 42.3967 4.11621 42.8127C3.98485 43.2287 3.79655 43.5833 3.54695 43.868C3.29735 44.157 2.98644 44.3759 2.61861 44.5336C2.25078 44.6912 1.82164 44.7657 1.33996 44.7657C0.906443 44.7657 0.45979 44.7043 0 44.5861L0.0788211 43.7673C0.087579 43.6884 0.118232 43.6271 0.1664 43.5746C0.214569 43.5264 0.289011 43.5001 0.389727 43.5001C0.464169 43.5001 0.564885 43.5177 0.691874 43.5571C0.818864 43.5921 0.989643 43.614 1.19545 43.614C1.47133 43.614 1.72093 43.5746 1.9355 43.4914C2.15006 43.4082 2.3296 43.2812 2.47849 43.106C2.62737 42.9309 2.73684 42.7076 2.81129 42.4317C2.88573 42.1602 2.92514 41.8318 2.92514 41.4508V35.3291H4.30889V41.4158L4.31327 41.407Z" fill="white"/>
<path d="M20.2745 39.9927C20.2745 40.689 20.1607 41.3327 19.9417 41.9151C19.7184 42.4975 19.4031 43.001 18.9959 43.4258C18.5886 43.8506 18.0982 44.179 17.5333 44.4111C16.964 44.6431 16.3335 44.7614 15.6416 44.7614C14.9497 44.7614 14.3235 44.6431 13.7499 44.4111C13.1806 44.1746 12.6902 43.8462 12.2873 43.4258C11.8844 43.0054 11.5648 42.5019 11.3415 41.9151C11.1137 41.3327 11.0043 40.689 11.0043 39.9927C11.0043 39.2965 11.1181 38.6572 11.3415 38.0748C11.5648 37.488 11.8801 36.9844 12.2873 36.5641C12.6945 36.1437 13.1806 35.8109 13.7499 35.5744C14.3191 35.338 14.9497 35.2197 15.6416 35.2197C16.3335 35.2197 16.964 35.338 17.5333 35.5744C18.1026 35.8109 18.5886 36.1393 18.9959 36.5641C19.4031 36.9888 19.7184 37.4924 19.9417 38.0748C20.165 38.6615 20.2745 39.3009 20.2745 39.9927ZM18.8557 39.9927C18.8557 39.4366 18.7813 38.9374 18.628 38.4952C18.4748 38.0529 18.2602 37.6763 17.9799 37.3698C17.6997 37.0632 17.3625 36.8268 16.964 36.6604C16.5655 36.494 16.1233 36.4152 15.6328 36.4152C15.1424 36.4152 14.7001 36.4984 14.3016 36.6604C13.9031 36.8268 13.566 37.0632 13.2857 37.3698C13.0055 37.6763 12.7865 38.0529 12.6332 38.4952C12.48 38.9374 12.4055 39.4366 12.4055 39.9927C12.4055 40.5489 12.48 41.0524 12.6332 41.4903C12.7865 41.9282 13.0011 42.3048 13.2857 42.6113C13.566 42.9178 13.9075 43.1543 14.3016 43.3163C14.7001 43.4783 15.1424 43.5616 15.6328 43.5616C16.1233 43.5616 16.5655 43.4783 16.964 43.3163C17.3625 43.1543 17.6997 42.9178 17.9799 42.6113C18.2602 42.3048 18.4748 41.9282 18.628 41.4903C18.7813 41.0524 18.8557 40.5489 18.8557 39.9927Z" fill="white"/>
<path d="M30.7009 43.5483C31.0731 43.5483 31.4059 43.487 31.7037 43.36C31.9971 43.233 32.2467 43.0578 32.4525 42.8301C32.6583 42.6024 32.8115 42.3309 32.921 42.0157C33.0305 41.7004 33.083 41.3544 33.083 40.9735V35.3203H34.4624V40.9735C34.4624 41.5208 34.3748 42.0244 34.204 42.4886C34.0333 42.9527 33.7793 43.3512 33.4552 43.6928C33.1312 44.03 32.7371 44.2971 32.2729 44.4854C31.8088 44.6737 31.2877 44.77 30.7053 44.77C30.1229 44.77 29.6018 44.6737 29.1376 44.4854C28.6734 44.2971 28.2793 44.03 27.9553 43.6928C27.6312 43.3556 27.3816 42.9527 27.2065 42.4886C27.0313 42.0244 26.9481 41.5208 26.9481 40.9735V35.3203H28.3319V40.9647C28.3319 41.3457 28.3844 41.696 28.4895 42.0113C28.5946 42.3266 28.7522 42.5981 28.9537 42.8301C29.1595 43.0578 29.4091 43.233 29.7025 43.36C29.9959 43.487 30.3331 43.5483 30.7053 43.5483H30.7009Z" fill="white"/>
<path d="M48.707 44.6605H47.4722C47.227 44.6605 47.043 44.5642 46.9336 44.3671L44.6259 41.1267C44.5514 41.0173 44.4726 40.9428 44.385 40.8946C44.2974 40.8465 44.1704 40.8246 43.9953 40.8246H43.0932V44.6561H41.7095V35.3159H44.4025C45.0068 35.3159 45.5235 35.3772 45.9614 35.4998C46.3993 35.6224 46.7584 35.7976 47.043 36.0253C47.3277 36.253 47.5379 36.5289 47.6736 36.8485C47.8094 37.1682 47.8794 37.5273 47.8794 37.9301C47.8794 38.2542 47.8312 38.5607 47.7305 38.8453C47.6298 39.1299 47.4853 39.3883 47.2926 39.616C47.1 39.8437 46.8635 40.0408 46.5876 40.2028C46.3117 40.3692 45.9965 40.4918 45.6461 40.5794C45.8213 40.6845 45.9702 40.829 46.0928 41.0129L48.7202 44.6474L48.707 44.6605ZM44.35 39.8218C44.7047 39.8218 45.02 39.778 45.2915 39.6904C45.5629 39.6029 45.7907 39.4803 45.9702 39.3226C46.1541 39.165 46.2899 38.9767 46.3818 38.7577C46.4738 38.5388 46.5176 38.298 46.5176 38.0308C46.5176 37.4922 46.3424 37.0894 45.9877 36.8135C45.633 36.5376 45.1032 36.4019 44.3981 36.4019H43.0888V39.8174H44.35V39.8218Z" fill="white"/>
<path d="M62.5972 35.3203V44.6605H61.8965C61.7871 44.6605 61.6995 44.643 61.625 44.6036C61.555 44.5642 61.4805 44.5029 61.4061 44.4153L56.1294 37.593C56.1382 37.7112 56.147 37.825 56.1513 37.9389C56.1601 38.0528 56.1601 38.1578 56.1601 38.2586V44.6649H54.9427V35.3247H55.6565C55.7791 35.3247 55.8711 35.3378 55.928 35.3685C55.9893 35.3948 56.055 35.4604 56.1294 35.5612L61.4192 42.3922C61.4061 42.2653 61.3973 42.1427 61.3886 42.0244C61.3842 41.9062 61.3798 41.7923 61.3798 41.6916V35.3291H62.5884L62.5972 35.3203Z" fill="white"/>
<path d="M77.6563 44.6605H76.5878C76.4652 44.6605 76.3689 44.6299 76.29 44.5686C76.2112 44.5073 76.1543 44.4284 76.1193 44.3365L75.2916 42.1689H71.1754L70.3478 44.3365C70.3171 44.4197 70.2602 44.4941 70.177 44.5598C70.0938 44.6255 69.9931 44.6605 69.8793 44.6605H68.8108L72.5329 35.3203H73.9298L77.6519 44.6605H77.6563ZM74.9194 41.1793L73.5357 37.5579C73.435 37.3127 73.3342 36.9974 73.2379 36.6208C73.1897 36.8048 73.1416 36.9799 73.0934 37.1419C73.0452 37.304 72.9927 37.4441 72.9489 37.5711L71.5695 41.1793H74.9282H74.9194Z" fill="white"/>
<path d="M89.2167 43.4957V44.6605H83.87V35.3203H85.2537V43.4957H89.2167Z" fill="white"/>
<path d="M19.9899 14.9409L11.0612 25.4416H19.9899V32.0537H0.65686V25.5335L11.1576 14.6651H0.888945V8.5127H19.9899V14.9409Z" fill="white"/>
<path d="M41.3154 9.41487C43.6275 10.5402 44.7704 12.8129 44.7397 16.2372L44.6915 27.202C44.6302 30.9022 40.7286 32.7501 32.991 32.7501C29.5053 32.7501 26.821 32.1108 24.9425 30.8321C23.0595 29.5535 22.1224 27.3859 22.1224 24.3338C22.1224 22.2976 22.8012 20.6424 24.1586 19.3594C25.5161 18.0807 27.5961 17.4414 30.403 17.4414C31.4189 17.4414 32.4787 17.5903 33.5734 17.8793C34.6681 18.1727 35.6315 18.5493 36.4635 19.0134V18.0895C36.4635 15.7161 34.8433 14.5294 31.6072 14.5294C30.2498 14.5294 28.8704 14.7922 27.4691 15.3176C26.0679 15.8431 24.9644 16.443 24.163 17.1217V9.80459C24.9644 9.27912 26.2518 8.80182 28.0253 8.37269C29.7987 7.94356 31.7649 7.72461 33.9237 7.72461C36.5423 7.72461 39.0121 8.28949 41.3241 9.41487H41.3154ZM35.7629 26.8079C36.227 26.6371 36.4547 26.3043 36.4547 25.8139V22.9457C35.776 22.7311 34.9878 22.6217 34.0945 22.6217C32.7677 22.6217 31.8262 22.7837 31.2744 23.1077C30.7183 23.4318 30.4424 23.9791 30.4424 24.7498C30.4424 25.3366 30.6964 25.8664 31.2044 26.3481C31.7123 26.8298 32.3079 27.0663 32.9866 27.0663C34.3747 27.0663 35.2987 26.9831 35.7629 26.8123V26.8079Z" fill="white"/>
<path d="M48.9479 11.2409C49.4427 10.7767 50.2572 10.2688 51.4001 9.71263C52.5386 9.15651 53.8304 8.68797 55.2623 8.30263C56.6942 7.91728 58.043 7.72461 59.3085 7.72461C62.7635 7.72461 65.0887 8.21943 66.2929 9.20468V15.1731C65.6755 14.9892 64.6508 14.836 63.2189 14.709C61.787 14.5864 60.4645 14.5251 59.2647 14.5251C58.2794 14.5251 57.6445 14.5557 57.3686 14.617V32.0538H48.9479V11.2409Z" fill="white"/>
<path d="M87.4083 11.3107C89.2124 13.7936 90.0969 17.5638 90.0663 22.6214H75.4012C76.1412 24.7803 78.0986 25.8575 81.2777 25.8575C82.5433 25.8575 84.2861 25.4415 86.5062 24.6095L87.6623 24.2416V31.226C85.0086 32.2419 82.1273 32.7499 79.0138 32.7499C76.5791 32.7499 74.4203 32.2551 72.5374 31.2698C70.6544 30.2845 69.1918 28.8789 68.1409 27.0617C67.0899 25.2444 66.5688 23.1469 66.5688 20.7692C66.5688 16.6048 67.6329 13.3688 69.7611 11.0567C71.8893 8.74468 74.9414 7.58865 78.9219 7.58865C82.9023 7.58865 85.6041 8.82788 87.4083 11.3107ZM70.8734 0H79.062L81.0062 5.8765H76.566L70.8734 0ZM76.3558 14.7307C75.7252 15.3612 75.3005 16.3421 75.0815 17.6689H81.7901C81.6062 16.2501 81.2558 15.2474 80.7479 14.6606C80.2399 14.0738 79.4911 13.7804 78.5059 13.7804C77.7045 13.7804 76.9864 14.0957 76.3558 14.7307Z" fill="white"/>
<path d="M100.615 0.358981L104.828 0.20134C110.393 -0.00884733 115.061 3.50742 115 7.86005L114.737 26.9083C114.702 29.4306 114.098 31.7339 112.929 33.8182C111.755 35.9026 110.218 37.8381 108.313 39.6247C106.404 41.4113 104.232 43.0752 101.793 44.6166C99.354 46.158 96.8799 47.6206 94.3708 49.0043C93.7139 48.3869 93.7971 47.476 94.5547 46.9462C96.6566 45.4836 98.4388 44.0824 99.9014 42.7381C101.67 41.1091 103.072 39.4189 104.105 37.676C105.139 35.9289 105.852 34.0109 106.251 31.9178C106.649 29.8203 106.868 27.3856 106.908 24.6006L107.122 9.16497C107.157 6.64709 106.645 4.74665 105.59 3.47239C104.604 2.2857 102.857 1.63324 100.348 1.51939C100.028 1.50626 99.7744 1.30483 99.7788 1.05523C99.7832 0.687399 100.155 0.385255 100.628 0.367739L100.615 0.358981Z" fill="#EF5138"/>
</g>
<defs>
<clipPath id="clip0_232_947">
<rect width="115.001" height="49.0044" fill="white"/>
</clipPath>
</defs>
</svg>
