<svg width="115" height="50" viewBox="0 0 115 50" fill="none" xmlns="http://www.w3.org/2000/svg">
<g clip-path="url(#clip0_3_123)">
<path d="M4.31327 41.407C4.31327 41.9281 4.24758 42.3967 4.11621 42.8127C3.98485 43.2287 3.79655 43.5833 3.54695 43.868C3.29735 44.157 2.98644 44.3759 2.61861 44.5336C2.25078 44.6912 1.82164 44.7657 1.33996 44.7657C0.906443 44.7657 0.45979 44.7043 0 44.5861L0.0788211 43.7673C0.087579 43.6884 0.118232 43.6271 0.1664 43.5746C0.214569 43.5264 0.289011 43.5001 0.389727 43.5001C0.464169 43.5001 0.564885 43.5177 0.691874 43.5571C0.818864 43.5921 0.989643 43.614 1.19545 43.614C1.47133 43.614 1.72093 43.5746 1.9355 43.4914C2.15006 43.4082 2.3296 43.2812 2.47849 43.106C2.62737 42.9309 2.73684 42.7076 2.81129 42.4317C2.88573 42.1602 2.92514 41.8318 2.92514 41.4508V35.3291H4.30889V41.4158L4.31327 41.407Z" fill="#3E2630"/>
<path d="M20.2745 39.9926C20.2745 40.6889 20.1607 41.3326 19.9417 41.915C19.7184 42.4974 19.4031 43.0009 18.9959 43.4257C18.5886 43.8504 18.0982 44.1789 17.5333 44.4109C16.964 44.643 16.3335 44.7612 15.6416 44.7612C14.9497 44.7612 14.3235 44.643 13.7499 44.4109C13.1806 44.1745 12.6902 43.8461 12.2873 43.4257C11.8844 43.0053 11.5648 42.5017 11.3415 41.915C11.1137 41.3326 11.0043 40.6889 11.0043 39.9926C11.0043 39.2964 11.1181 38.657 11.3415 38.0747C11.5648 37.4879 11.8801 36.9843 12.2873 36.5639C12.6945 36.1436 13.1806 35.8108 13.7499 35.5743C14.3191 35.3378 14.9497 35.2196 15.6416 35.2196C16.3335 35.2196 16.964 35.3378 17.5333 35.5743C18.1026 35.8108 18.5886 36.1392 18.9959 36.5639C19.4031 36.9887 19.7184 37.4923 19.9417 38.0747C20.165 38.6614 20.2745 39.3007 20.2745 39.9926ZM18.8557 39.9926C18.8557 39.4365 18.7813 38.9373 18.628 38.495C18.4748 38.0528 18.2602 37.6762 17.9799 37.3696C17.6997 37.0631 17.3625 36.8267 16.964 36.6603C16.5655 36.4939 16.1233 36.415 15.6328 36.415C15.1424 36.415 14.7001 36.4982 14.3016 36.6603C13.9031 36.8267 13.566 37.0631 13.2857 37.3696C13.0055 37.6762 12.7865 38.0528 12.6332 38.495C12.48 38.9373 12.4055 39.4365 12.4055 39.9926C12.4055 40.5487 12.48 41.0523 12.6332 41.4902C12.7865 41.9281 13.0011 42.3047 13.2857 42.6112C13.566 42.9177 13.9075 43.1542 14.3016 43.3162C14.7001 43.4782 15.1424 43.5614 15.6328 43.5614C16.1233 43.5614 16.5655 43.4782 16.964 43.3162C17.3625 43.1542 17.6997 42.9177 17.9799 42.6112C18.2602 42.3047 18.4748 41.9281 18.628 41.4902C18.7813 41.0523 18.8557 40.5487 18.8557 39.9926Z" fill="#3E2630"/>
<path d="M30.7009 43.5483C31.0731 43.5483 31.4059 43.487 31.7037 43.36C31.9971 43.233 32.2467 43.0578 32.4525 42.8301C32.6583 42.6024 32.8115 42.3309 32.921 42.0157C33.0305 41.7004 33.083 41.3544 33.083 40.9735V35.3203H34.4624V40.9735C34.4624 41.5208 34.3748 42.0244 34.204 42.4886C34.0333 42.9527 33.7793 43.3512 33.4552 43.6928C33.1312 44.03 32.7371 44.2971 32.2729 44.4854C31.8088 44.6737 31.2877 44.77 30.7053 44.77C30.1229 44.77 29.6018 44.6737 29.1376 44.4854C28.6734 44.2971 28.2793 44.03 27.9553 43.6928C27.6312 43.3556 27.3816 42.9527 27.2065 42.4886C27.0313 42.0244 26.9481 41.5208 26.9481 40.9735V35.3203H28.3319V40.9647C28.3319 41.3457 28.3844 41.696 28.4895 42.0113C28.5946 42.3266 28.7522 42.5981 28.9537 42.8301C29.1595 43.0578 29.4091 43.233 29.7025 43.36C29.9959 43.487 30.3331 43.5483 30.7053 43.5483H30.7009Z" fill="#3E2630"/>
<path d="M48.707 44.6605H47.4722C47.227 44.6605 47.043 44.5642 46.9336 44.3671L44.6259 41.1267C44.5514 41.0173 44.4726 40.9428 44.385 40.8946C44.2974 40.8465 44.1704 40.8246 43.9953 40.8246H43.0932V44.6561H41.7095V35.3159H44.4025C45.0068 35.3159 45.5235 35.3772 45.9614 35.4998C46.3993 35.6224 46.7584 35.7976 47.043 36.0253C47.3277 36.253 47.5379 36.5289 47.6736 36.8485C47.8094 37.1682 47.8794 37.5273 47.8794 37.9301C47.8794 38.2542 47.8312 38.5607 47.7305 38.8453C47.6298 39.1299 47.4853 39.3883 47.2926 39.616C47.1 39.8437 46.8635 40.0408 46.5876 40.2028C46.3117 40.3692 45.9965 40.4918 45.6461 40.5794C45.8213 40.6845 45.9702 40.829 46.0928 41.0129L48.7202 44.6474L48.707 44.6605ZM44.35 39.8218C44.7047 39.8218 45.02 39.778 45.2915 39.6904C45.5629 39.6029 45.7907 39.4803 45.9702 39.3226C46.1541 39.165 46.2899 38.9767 46.3818 38.7577C46.4738 38.5388 46.5176 38.298 46.5176 38.0308C46.5176 37.4922 46.3424 37.0894 45.9877 36.8135C45.633 36.5376 45.1032 36.4019 44.3981 36.4019H43.0888V39.8174H44.35V39.8218Z" fill="#3E2630"/>
<path d="M62.5972 35.3203V44.6605H61.8965C61.7871 44.6605 61.6995 44.643 61.625 44.6036C61.555 44.5642 61.4805 44.5029 61.4061 44.4153L56.1294 37.593C56.1382 37.7112 56.147 37.825 56.1513 37.9389C56.1601 38.0528 56.1601 38.1578 56.1601 38.2586V44.6649H54.9427V35.3247H55.6565C55.7791 35.3247 55.8711 35.3378 55.928 35.3685C55.9893 35.3948 56.055 35.4604 56.1294 35.5612L61.4192 42.3922C61.4061 42.2653 61.3973 42.1427 61.3886 42.0244C61.3842 41.9062 61.3798 41.7923 61.3798 41.6916V35.3291H62.5884L62.5972 35.3203Z" fill="#3E2630"/>
<path d="M77.6563 44.6605H76.5878C76.4652 44.6605 76.3689 44.6299 76.29 44.5686C76.2112 44.5073 76.1543 44.4284 76.1193 44.3365L75.2916 42.1689H71.1754L70.3478 44.3365C70.3171 44.4197 70.2602 44.4941 70.177 44.5598C70.0938 44.6255 69.9931 44.6605 69.8793 44.6605H68.8108L72.5329 35.3203H73.9298L77.6519 44.6605H77.6563ZM74.9194 41.1793L73.5357 37.5579C73.435 37.3127 73.3342 36.9974 73.2379 36.6208C73.1897 36.8048 73.1416 36.9799 73.0934 37.1419C73.0452 37.304 72.9927 37.4441 72.9489 37.5711L71.5695 41.1793H74.9282H74.9194Z" fill="#3E2630"/>
<path d="M89.2167 43.4957V44.6605H83.87V35.3203H85.2537V43.4957H89.2167Z" fill="#3E2630"/>
<path d="M19.9899 14.9408L11.0612 25.4414H19.9899V32.0536H0.65686V25.5334L11.1576 14.6649H0.888945V8.51257H19.9899V14.9408Z" fill="#3E2630"/>
<path d="M41.3154 9.41469C43.6275 10.5401 44.7704 12.8127 44.7397 16.237L44.6915 27.2018C44.6302 30.902 40.7286 32.7499 32.991 32.7499C29.5053 32.7499 26.821 32.1106 24.9425 30.8319C23.0595 29.5533 22.1224 27.3857 22.1224 24.3336C22.1224 22.2974 22.8012 20.6422 24.1586 19.3592C25.5161 18.0805 27.5961 17.4412 30.403 17.4412C31.4189 17.4412 32.4787 17.5901 33.5734 17.8791C34.6681 18.1725 35.6315 18.5491 36.4635 19.0133V18.0893C36.4635 15.7159 34.8433 14.5293 31.6072 14.5293C30.2498 14.5293 28.8704 14.792 27.4691 15.3175C26.0679 15.8429 24.9644 16.4428 24.163 17.1216V9.80441C24.9644 9.27894 26.2518 8.80164 28.0253 8.37251C29.7987 7.94337 31.7649 7.72443 33.9237 7.72443C36.5423 7.72443 39.0121 8.28931 41.3241 9.41469H41.3154ZM35.7629 26.8077C36.227 26.6369 36.4547 26.3041 36.4547 25.8137V22.9455C35.776 22.731 34.9878 22.6215 34.0945 22.6215C32.7677 22.6215 31.8262 22.7835 31.2744 23.1075C30.7183 23.4316 30.4424 23.9789 30.4424 24.7496C30.4424 25.3364 30.6964 25.8662 31.2044 26.3479C31.7123 26.8296 32.3079 27.0661 32.9866 27.0661C34.3747 27.0661 35.2987 26.9829 35.7629 26.8121V26.8077Z" fill="#3E2630"/>
<path d="M48.9479 11.2407C49.4427 10.7765 50.2572 10.2686 51.4001 9.71245C52.5386 9.15633 53.8304 8.68779 55.2623 8.30244C56.6942 7.9171 58.043 7.72443 59.3085 7.72443C62.7635 7.72443 65.0887 8.21924 66.2929 9.2045V15.173C65.6755 14.989 64.6508 14.8358 63.2189 14.7088C61.787 14.5862 60.4645 14.5249 59.2647 14.5249C58.2794 14.5249 57.6445 14.5555 57.3686 14.6168V32.0536H48.9479V11.2407Z" fill="#3E2630"/>
<path d="M87.4083 11.3107C89.2124 13.7936 90.0969 17.5638 90.0663 22.6214H75.4012C76.1412 24.7803 78.0986 25.8575 81.2777 25.8575C82.5433 25.8575 84.2861 25.4415 86.5062 24.6095L87.6623 24.2416V31.226C85.0086 32.2419 82.1273 32.7499 79.0138 32.7499C76.5791 32.7499 74.4203 32.2551 72.5374 31.2698C70.6544 30.2845 69.1918 28.8789 68.1409 27.0617C67.0899 25.2444 66.5688 23.1469 66.5688 20.7692C66.5688 16.6048 67.6329 13.3688 69.7611 11.0567C71.8893 8.74468 74.9414 7.58865 78.9219 7.58865C82.9023 7.58865 85.6041 8.82788 87.4083 11.3107ZM70.8734 0H79.062L81.0062 5.8765H76.566L70.8734 0ZM76.3558 14.7307C75.7252 15.3612 75.3005 16.3421 75.0815 17.6689H81.7901C81.6062 16.2501 81.2558 15.2474 80.7479 14.6606C80.2399 14.0738 79.4911 13.7804 78.5059 13.7804C77.7045 13.7804 76.9864 14.0957 76.3558 14.7307Z" fill="#3E2630"/>
<path d="M100.615 0.359042L104.828 0.201401C110.393 -0.00878629 115.061 3.50748 115 7.86011L114.737 26.9084C114.702 29.4306 114.098 31.7339 112.929 33.8183C111.755 35.9027 110.218 37.8381 108.313 39.6247C106.404 41.4113 104.232 43.0753 101.793 44.6167C99.354 46.1581 96.8799 47.6206 94.3708 49.0043C93.7139 48.3869 93.7971 47.4761 94.5547 46.9463C96.6566 45.4837 98.4388 44.0825 99.9014 42.7381C101.67 41.1092 103.072 39.4189 104.105 37.6761C105.139 35.9289 105.852 34.011 106.251 31.9178C106.649 29.8203 106.868 27.3857 106.908 24.6007L107.122 9.16503C107.157 6.64716 106.645 4.74671 105.59 3.47245C104.604 2.28576 102.857 1.6333 100.348 1.51945C100.028 1.50632 99.7744 1.30489 99.7788 1.05529C99.7832 0.68746 100.155 0.385316 100.628 0.3678L100.615 0.359042Z" fill="#EF5138"/>
</g>
<defs>
<clipPath id="clip0_3_123">
<rect width="115.001" height="49.0044" fill="white"/>
</clipPath>
</defs>
</svg>
